<svg xmlns="http://www.w3.org/2000/svg" xmlns:xlink="http://www.w3.org/1999/xlink" xmlns:a="http://ns.adobe.com/AdobeSVGViewerExtensions/3.0/" version="1.1" x="0px" y="0px" width="233px" height="163px" viewBox="165 21 233 163" overflow="visible" enable-background="new 165 21 233 163" xml:space="preserve">
  <defs/>
  <rect display="none" fill="#E6E6E6" width="557" height="310"/>
  <path fill="#8CC5E7" d="M280.485 118.422c-1.944-3.976-6.646-0.464-7.836-1.711 -6.095-6.27-13.466-7.836-19.242-8.126 0 0-2.612 0-3.192 0 -5.803 0.146-13.175 1.829-19.242 8.126 -1.188 1.247-5.919-2.265-7.835 1.711 -2.235 4.644 4.556 5.108 4.208 7.169 -0.667 3.714-0.231 9.229 0.29 14.656 0.813 9.199-6.065 31.227 8.243 40.079 2.699 1.684 9.984 2.612 16.31 2.758l0 0h0.03 0.029l0 0c6.326-0.146 12.74-1.074 15.439-2.758 14.337-8.852 7.458-30.879 8.3-40.079 0.493-5.428 0.93-10.942 0.291-14.656C275.929 123.53 282.72 123.038 280.485 118.422z"/>
  <path fill="#E0DEDC" d="M261.882 121.238c-9.694 1.132-8.388 11.231-4.643 14.511 6.963 6.095 14.22 0 13.408-6.153C269.921 123.676 264.9 120.89 261.882 121.238z"/>
  <circle fill="#111212" cx="262.55" cy="129.944" r="3.309"/>
  <circle fill="#FFFFFF" cx="261.678" cy="128.522" r="1.045"/>
  <path fill="#B8937F" d="M251.812 136.533c-4.645 0.696-6.298 2.032-5.949 4.121 0.58 3.425 11.521 3.048 11.869 0.174C258.022 138.36 253.64 136.271 251.812 136.533z"/>
  <path d="M248.821 137.925c-0.783 2.844 6.299 2.41 6.125 0.581 -0.088-1.074-1.045-2.437-3.57-2.38C250.389 136.155 249.171 136.59 248.821 137.925z"/>
  <path fill="#E0DEDC" d="M249.055 142.541c-0.262 0.116-0.697 2.96 0.638 3.105 0.9 0.087 3.366 0.378 3.947 0 1.131-0.726 1.015-2.467 0.377-2.902C252.943 142.046 249.344 142.396 249.055 142.541z"/>
  <path fill="#E0DEDC" d="M241.683 121.238c9.693 1.132 8.387 11.231 4.643 14.511 -6.965 6.095-14.22 0-13.407-6.153C233.673 123.676 238.694 120.89 241.683 121.238z"/>
  <circle fill="#111212" cx="241.044" cy="129.944" r="3.309"/>
  <circle fill="#FFFFFF" cx="241.915" cy="128.522" r="1.045"/>
  <path fill="#B8937F" d="M276.508 159.663c3.193 0.029 1.627-6.82-0.348-5.456 -0.956 0.667-1.132 2.207-1.132 3.511C275.028 158.444 275.609 159.634 276.508 159.663z"/>
  <path fill="#B8937F" d="M227.084 159.663c-3.192 0.029-1.625-6.82 0.348-5.456 0.958 0.667 1.133 2.207 1.133 3.511C228.565 158.444 227.985 159.634 227.084 159.663z"/>
  <path fill="#B8937F" d="M270.444 180.704c-1.742-2.583-3.309-0.579-5.833 0.696 -1.19 0.609 1.973 2.787 5.513 1.162C271.053 182.127 271.024 181.546 270.444 180.704z"/>
  <path fill="#B8937F" d="M233.15 180.994c1.741-2.583 3.309-0.58 5.833 0.696 1.19 0.608-1.974 2.786-5.514 1.161C232.541 182.416 232.569 181.836 233.15 180.994z"/>
  <path fill="#3C89BF" d="M275.059 119.12c-0.176 0.609 0.609 0.521 0.898 2.408 0.117 0.698 2.613-1.015 1.596-2.264C276.713 118.22 275.204 118.51 275.059 119.12z"/>
  <path fill="#3C89BF" d="M228.536 119.12c0.174 0.609-0.609 0.521-0.9 2.408 -0.116 0.698-2.612-1.015-1.595-2.264C226.854 118.22 228.362 118.51 228.536 119.12z"/>
  <path display="none" d="M203.792 163.648c1.36-1.87 2.351-4.008 2.975-6.417 0.623-2.408 0.935-4.916 0.935-7.522h-13.515c-2.664 0-3.995-0.991-3.995-2.976 0-2.152 1.331-3.229 3.995-3.229h15.385c1.812 0 3.073 0.425 3.782 1.274 0.708 0.851 1.062 2.465 1.062 4.846 0 3.344-0.425 6.587-1.275 9.732 -0.85 3.145-2.225 5.937-4.123 8.372 -1.899 2.438-4.364 4.407-7.395 5.907 -3.032 1.501-6.729 2.253-11.092 2.253 -4.25 0-8.075-0.808-11.475-2.423 -3.4-1.614-6.319-3.796-8.755-6.545 -2.438-2.748-4.307-5.963-5.61-9.647 -1.304-3.683-1.955-7.62-1.955-11.814 0-4.08 0.637-8.004 1.912-11.772 1.275-3.769 3.103-7.083 5.483-9.945 2.38-2.861 5.255-5.156 8.627-6.885 3.371-1.729 7.153-2.593 11.347-2.593 2.436 0 4.788 0.241 7.055 0.723 2.266 0.481 4.533 1.374 6.8 2.678 1.246 0.736 2.366 1.502 3.358 2.295 0.991 0.794 1.798 1.559 2.422 2.295 0.623 0.737 1.02 1.444 1.19 2.125 0.17 0.68 0.085 1.274-0.255 1.785 -0.227 0.396-0.54 0.779-0.935 1.147 -0.397 0.369-0.865 0.609-1.403 0.722 -0.539 0.114-1.119 0.1-1.742-0.042 -0.625-0.141-1.247-0.523-1.87-1.147 -1.36-1.303-2.649-2.38-3.868-3.23 -1.219-0.85-2.422-1.529-3.612-2.04 -1.19-0.51-2.395-0.863-3.612-1.062 -1.219-0.197-2.508-0.297-3.868-0.297 -2.834 0-5.482 0.694-7.947 2.082 -2.465 1.39-4.605 3.23-6.418 5.525 -1.814 2.295-3.244 4.93-4.292 7.905 -1.049 2.975-1.572 6.077-1.572 9.307 0 3.345 0.523 6.518 1.572 9.521 1.048 3.004 2.508 5.625 4.378 7.862 1.87 2.239 4.093 4.024 6.672 5.355 2.578 1.332 5.397 1.997 8.458 1.997"/>
  <path display="none" d="M322.961 166.794c0.566 0.624 1.105 1.247 1.615 1.87 0.51 0.624 0.906 1.247 1.19 1.869 0.282 0.625 0.41 1.22 0.382 1.785 -0.028 0.567-0.27 1.077-0.722 1.53 -0.737 0.735-1.587 1.118-2.55 1.147 -0.965 0.028-1.814-0.354-2.551-1.147l-24.819-25.16h-0.851v22.95c0 0.964-0.27 1.771-0.807 2.423 -0.539 0.65-1.375 0.978-2.508 0.978 -1.247 0-2.125-0.327-2.635-0.978 -0.51-0.651-0.766-1.459-0.766-2.423v-51.51c0-1.756 0.311-2.876 0.936-3.357 0.623-0.481 1.926-0.723 3.91-0.723h13.77c6.006 0 10.596 1.274 13.77 3.825 3.174 2.55 4.76 6.659 4.76 12.324 0 5.61-1.644 9.762-4.93 12.453 -3.287 2.691-7.82 4.037-13.6 4.037h-2.295M294.656 142.823h11.9c3.91 0 6.855-0.82 8.84-2.465 1.982-1.643 2.975-4.306 2.975-7.99 0-3.683-1.034-6.317-3.102-7.904 -2.07-1.586-4.973-2.38-8.713-2.38h-11.9V142.823z"/>
  <path display="none" d="M369.201 171.979c-0.284 1.077-0.638 1.856-1.062 2.338 -0.426 0.48-1.092 0.723-1.998 0.723 -0.964 0-1.644-0.213-2.039-0.638 -0.397-0.425-0.766-1.232-1.105-2.423 -2.154-7.31-4.322-14.562-6.502-21.76 -2.183-7.196-4.293-14.45-6.333-21.76 -0.397-1.36-0.808-2.04-1.232-2.04s-0.752 0.68-0.978 2.04l-6.29 42.5c-0.17 1.304-0.497 2.31-0.978 3.018 -0.482 0.707-1.375 1.062-2.678 1.062 -2.154 0-2.975-1.416-2.465-4.25l7.734-50.575c0.227-1.7 0.779-2.976 1.658-3.825 0.878-0.85 2.025-1.275 3.442-1.275 1.416 0 2.593 0.369 3.528 1.105 0.934 0.737 1.685 2.04 2.252 3.91l12.07 42.585 11.814-42.67c0.51-1.813 1.232-3.088 2.168-3.825 0.935-0.736 2.082-1.105 3.441-1.105 1.361 0 2.508 0.426 3.443 1.275s1.543 2.154 1.827 3.91l7.65 49.895c0.17 1.19 0.128 2.282-0.128 3.272 -0.255 0.991-1.176 1.516-2.762 1.573 -1.021 0-1.758-0.298-2.211-0.893 -0.453-0.596-0.794-1.601-1.02-3.018l-4.93-33.915c-0.17-1.076-0.383-2.408-0.638-3.995 -0.255-1.586-0.54-2.961-0.851-4.123 -0.312-1.16-0.652-1.912-1.02-2.252 -0.369-0.34-0.752 0.17-1.147 1.53"/>
  <path d="M211.447 149.646h-16.32c-1.87 0-2.805-0.623-2.805-1.87 0-1.416 0.935-2.125 2.805-2.125h16.15c1.53 0 2.605 0.34 3.23 1.021 0.623 0.68 0.935 2.012 0.935 3.995 0 3.229-0.412 6.39-1.232 9.478 -0.822 3.089-2.14 5.852-3.953 8.287 -1.814 2.438-4.194 4.406-7.14 5.907 -2.947 1.501-6.545 2.253-10.795 2.253 -4.08 0-7.777-0.851-11.092-2.55 -3.315-1.7-6.149-3.953-8.5-6.758 -2.353-2.805-4.18-6.006-5.483-9.605 -1.304-3.598-1.955-7.323-1.955-11.177s0.65-7.636 1.955-11.348c1.303-3.711 3.13-7.013 5.483-9.902 2.351-2.891 5.156-5.228 8.415-7.013 3.258-1.785 6.843-2.678 10.753-2.678 2.38 0 4.675 0.255 6.885 0.765 2.21 0.511 4.391 1.39 6.545 2.636 2.153 1.247 3.74 2.395 4.76 3.442 1.02 1.049 1.53 1.941 1.53 2.678 0 0.396-0.1 0.779-0.297 1.147 -0.199 0.369-0.482 0.637-0.85 0.807 -0.369 0.171-0.808 0.199-1.317 0.086 -0.51-0.113-1.077-0.453-1.7-1.021 -1.53-1.36-2.961-2.479-4.292-3.357 -1.332-0.878-2.622-1.572-3.867-2.083 -1.248-0.51-2.508-0.863-3.783-1.062 -1.275-0.197-2.592-0.297-3.953-0.297 -3.117 0-6.021 0.794-8.712 2.38 -2.692 1.587-5.044 3.655-7.055 6.205 -2.012 2.55-3.584 5.412-4.717 8.585 -1.134 3.174-1.7 6.375-1.7 9.604 0 3.345 0.566 6.617 1.7 9.818 1.133 3.202 2.72 6.049 4.76 8.542 2.04 2.494 4.476 4.505 7.31 6.035 2.833 1.53 5.921 2.295 9.265 2.295 3.853 0 7.013-0.68 9.478-2.04s4.405-3.13 5.822-5.312c1.416-2.181 2.394-4.646 2.933-7.395C211.177 155.271 211.447 152.48 211.447 149.646z"/>
  <path d="M290.496 120.576c0-1.303 0.213-2.138 0.638-2.507 0.425-0.368 1.345-0.553 2.763-0.553h14.365c5.495 0 9.732 1.305 12.707 3.91 2.975 2.607 4.463 6.489 4.463 11.645 0 4.987-1.445 8.897-4.336 11.73 -2.89 2.834-7.168 4.25-12.834 4.25h-7.056l20.315 19.38c0.623 0.624 1.26 1.232 1.912 1.827 0.65 0.596 1.19 1.177 1.615 1.743s0.693 1.104 0.808 1.614c0.112 0.511-0.029 0.965-0.425 1.36 -0.965 0.963-2.098 0.85-3.4-0.34l-25.755-25.585h-1.87v23.97c0 1.814-0.595 2.72-1.785 2.72 -1.417 0-2.125-0.905-2.125-2.72V120.576zM294.406 145.481h13.855c8.84 0 13.26-4.051 13.26-12.155 0-8.103-4.42-12.154-13.26-12.154h-13.855V145.481z"/>
  <path d="M397.851 172.002c0.056 0.396 0.099 0.821 0.128 1.274 0.027 0.454 0 0.865-0.086 1.232 -0.084 0.369-0.241 0.666-0.467 0.893 -0.227 0.226-0.596 0.34-1.105 0.34 -0.566 0-1.006-0.212-1.316-0.637 -0.312-0.426-0.553-1.176-0.723-2.253 -2.098-13.883-3.685-24.451-4.76-31.705 -1.078-7.253-1.673-11.248-1.785-11.985 -0.115-0.735-0.228-1.458-0.34-2.167 -0.115-0.708-0.229-1.373-0.341-1.997 -0.17-0.906-0.354-1.714-0.552-2.423 -0.199-0.708-0.426-1.218-0.681-1.53 -0.255-0.311-0.51-0.368-0.765-0.17 -0.256 0.199-0.497 0.752-0.723 1.657l-14.62 50.49c-0.34 1.077-0.638 1.8-0.893 2.168 -0.255 0.367-0.581 0.552-0.978 0.552 -0.34 0-0.637-0.156-0.893-0.467 -0.255-0.312-0.553-1.062-0.893-2.253 -2.55-8.5-5.057-16.9-7.522-25.202 -2.465-8.301-4.888-16.703-7.267-25.203 -0.398-1.359-0.809-2.04-1.233-2.04s-0.751 0.681-0.978 2.04l-7.65 50.235c-0.113 0.907-0.297 1.615-0.552 2.125s-0.808 0.765-1.657 0.765c-1.248 0-1.729-0.935-1.445-2.805l7.99-52.104c0.396-2.946 1.756-4.421 4.08-4.421 2.322 0 3.853 1.305 4.59 3.91l13.6 47.005 13.26-47.005c0.736-2.605 2.238-3.91 4.506-3.91 2.379 0 3.768 1.475 4.164 4.421L397.851 172.002z"/>
  <path fill="#FFFFFF" d="M383 69c0 6.627-5.373 12-12 12h-97c-6.627 0-12-5.373-12-12V33c0-6.627 5.373-12 12-12h97c6.627 0 12 5.373 12 12V69zM287 99.584L303.56 81H287v15.87V99.584z"/>
  <text transform="matrix(1 0 0 1 309.9375 56.7173)" font-family="'STYuanti-SC-Regular'" font-size="20">
    hi!
  </text>
</svg>
